<?xml version="1.0" encoding="utf-8"?>
<svg width="26.667" height="26.667" viewBox="0 0 26.667 26.667" fill="none" xmlns="http://www.w3.org/2000/svg">
  <path d="M13.3333 26.6667C20.6971 26.6667 26.6667 20.6971 26.6667 13.3333C26.6667 5.96954 20.6971 0 13.3333 0C5.96954 0 0 5.96954 0 13.3333C0 20.6971 5.96954 26.6667 13.3333 26.6667L13.3333 26.6667ZM12 12L12 6.66667L14.6667 6.66667L14.6667 12L20 12L20 14.6667L14.6667 14.6667L14.6667 20L12 20L12 14.6667L6.66667 14.6667L6.66667 12L12 12L12 12Z" fill="#FFFFFF" fill-rule="evenodd" transform="translate(-0 0)" />
</svg>