<svg xmlns="http://www.w3.org/2000/svg" style="display: none;">
  
  <!-- 1. Гантель -->
  <symbol id="icon-dumbbell" viewBox="0 0 22 16" fill="none" stroke="currentColor" stroke-width="1.5" stroke-linecap="round" stroke-linejoin="round">
    <path d="M5.5 9.25C5.5 8.83579 5.16421 8.5 4.75 8.5C4.33579 8.5 4 8.83579 4 9.25H5.5ZM9.40719 8.52421L8.71462 8.81204V8.81204L9.40719 8.52421ZM9.24096 10.7622L9.83788 11.2163L9.83788 11.2163L9.24096 10.7622ZM17.9216 12.9926L18.452 13.523V13.523L17.9216 12.9926ZM19.3359 11.5784L18.8055 11.0481V11.0481L19.3359 11.5784ZM20.75 9.76156L21.5 9.77023V9.77023L20.75 9.76156ZM20.449 9.03477L19.9248 9.57119V9.57119L20.449 9.03477ZM16.0697 14.5216L16.3567 15.2145L16.3567 15.2145L16.0697 14.5216ZM16.75 8C16.3358 8 16 8.33579 16 8.75C16 9.16421 16.3358 9.5 16.75 9.5V8ZM7.25 11C6.2835 11 5.5 10.2165 5.5 9.25H4C4 11.0449 5.45507 12.5 7.25 12.5V11ZM5.25 14C3.17893 14 1.5 12.3211 1.5 10.25H0C0 13.1495 2.3505 15.5 5.25 15.5V14ZM1.5 10.25C1.5 8.17893 3.17893 6.5 5.25 6.5V5C2.3505 5 0 7.3505 0 10.25H1.5ZM5.25 15.5L13.679 15.5V14L5.25 14V15.5ZM5.25 6.5C6.81038 6.5 8.14989 7.45323 8.71462 8.81204L10.0998 8.23637C9.31058 6.33751 7.43736 5 5.25 5V6.5ZM8.64404 10.3081C8.32313 10.73 7.81824 11 7.25 11V12.5C8.3066 12.5 9.24552 11.995 9.83788 11.2163L8.64404 10.3081ZM8.71462 8.81204C8.95312 9.38589 8.91156 9.95645 8.64404 10.3081L9.83788 11.2163C10.5302 10.3061 10.4697 9.12654 10.0998 8.23637L8.71462 8.81204ZM18.452 13.523L19.8662 12.1088L18.8055 11.0481L17.3913 12.4623L18.452 13.523ZM19.8662 12.1088C20.3245 11.6505 20.7083 11.2679 20.9724 10.9473C21.2197 10.6472 21.4944 10.2521 21.5 9.77023L20 9.75289C20.0009 9.6784 20.0384 9.72201 19.8147 9.99352C19.6078 10.2446 19.2868 10.5668 18.8055 11.0481L19.8662 12.1088ZM18.1643 9.5C18.845 9.5 19.2997 9.50085 19.6236 9.53212C19.9737 9.56594 19.9781 9.62325 19.9248 9.57119L20.9731 8.49834C20.6284 8.16151 20.1548 8.07645 19.7677 8.03907C19.3543 7.99915 18.8124 8 18.1643 8V9.5ZM21.5 9.77023C21.5055 9.2921 21.3151 8.83252 20.9731 8.49834L19.9248 9.57119C19.9736 9.61893 20.0008 9.68459 20 9.75289L21.5 9.77023ZM13.679 15.5C14.8441 15.5 15.6355 15.5133 16.3567 15.2145L15.7827 13.8287C15.4012 13.9867 14.9664 14 13.679 14V15.5ZM17.3913 12.4623C16.4809 13.3727 16.1641 13.6707 15.7827 13.8287L16.3567 15.2145C17.0779 14.9158 17.6282 14.3468 18.452 13.523L17.3913 12.4623ZM18.1643 8H16.75V9.5H18.1643V8Z" fill="currentColor" stroke="none"/>
    <path d="M9.25 10.75L15.8711 6.2433C16.058 6.10431 16.2248 5.94022 16.3663 5.75609C16.8507 5.12595 16.8412 4.25194 16.5341 3.52083C15.8509 1.89397 14.2296 0.75 12.3383 0.75C11.4046 0.75 10.5367 1.0288 9.81505 1.50685L2.75 6.50076" />
  </symbol>

  <!-- 2. Велосипед -->
  <symbol id="icon-bike" viewBox="0 0 12 20" fill="none" stroke="currentColor" stroke-width="1.5" stroke-linecap="round" stroke-linejoin="round">
    <path d="M9.75 3.25003C9.75 4.07846 9.07843 4.75003 8.25 4.75003C7.42157 4.75003 6.75 4.07846 6.75 3.25003C6.75 2.4216 7.42157 1.75003 8.25 1.75003C9.07843 1.75003 9.75 2.4216 9.75 3.25003Z" />
    <path d="M8.11019 12.75L9.05392 12.204C10.1286 11.5823 10.6659 11.2714 10.7385 10.8284C10.7499 10.7592 10.7528 10.6891 10.7473 10.6194C10.7122 10.173 10.2024 9.82889 9.18289 9.14074L4.47588 5.96363C2.62718 4.7158 2.20184 2.44117 3.50097 0.750031" />
    <path d="M4.47588 5.96363C1.97588 8.46363 0.75 15.3824 0.75 18.7504M4.47588 5.96363C2.62718 4.7158 2.20184 2.44117 3.50097 0.750031M4.47588 5.96363L7.1225 7.75003M8.11019 12.75L9.05392 12.204C10.1286 11.5823 10.6659 11.2714 10.7385 10.8284C10.7499 10.7592 10.7528 10.6891 10.7473 10.6194C10.7122 10.173 10.2024 9.82889 9.18289 9.14074L7.1225 7.75003M8.75016 18.7504C7.77681 17.6148 6.77574 16.05 5.80015 14.6079C5.11664 13.5975 4.77488 13.0922 4.7345 12.5633M7.1225 7.75003C6.31973 8.78913 5.76638 9.77075 5.3526 10.6442C4.91362 11.5709 4.69412 12.0343 4.7345 12.5633M4.7345 12.5633L1.75 11.75" />
  </symbol>

  <!-- 3. Коврик (Рулон) -->
  <symbol id="icon-mat" viewBox="0 0 21 21" fill="none" stroke="currentColor" stroke-width="1.5" stroke-linecap="round" stroke-linejoin="round">
    <path d="M2.68367 16.2803C2.97656 15.9874 2.97656 15.5126 2.68367 15.2197C2.39078 14.9268 1.9159 14.9268 1.62301 15.2197L2.68367 16.2803ZM3.88445 19.2122L4.41478 19.7425L4.41478 19.7425L3.88445 19.2122ZM5.28033 18.877C5.57322 18.5841 5.57322 18.1092 5.28033 17.8163C4.98744 17.5234 4.51256 17.5234 4.21967 17.8163L5.28033 18.877ZM1.62301 15.2197L0.757456 16.0852L1.81812 17.1459L2.68367 16.2803L1.62301 15.2197ZM4.41478 19.7425L5.28033 18.877L4.21967 17.8163L3.35412 18.6819L4.41478 19.7425ZM0.757456 19.7425C1.7674 20.7525 3.40483 20.7525 4.41478 19.7425L3.35412 18.6819C2.92996 19.106 2.24227 19.106 1.81812 18.6819L0.757456 19.7425ZM0.757456 16.0852C-0.252485 17.0952 -0.252485 18.7326 0.757456 19.7425L1.81812 18.6819C1.39396 18.2577 1.39396 17.57 1.81812 17.1459L0.757456 16.0852Z" fill="currentColor" stroke="none"/>
    <path d="M15.2197 1.62301C14.9268 1.9159 14.9268 2.39078 15.2197 2.68367C15.5126 2.97656 15.9874 2.97656 16.2803 2.68367L15.2197 1.62301ZM19.2122 3.88445L19.7425 4.41478L19.7425 4.41478L19.2122 3.88445ZM17.8163 4.21967C17.5234 4.51256 17.5234 4.98744 17.8163 5.28033C18.1092 5.57322 18.5841 5.57322 18.877 5.28033L17.8163 4.21967ZM16.2803 2.68367L17.1459 1.81812L16.0852 0.757456L15.2197 1.62301L16.2803 2.68367ZM18.6819 3.35412L17.8163 4.21967L18.877 5.28033L19.7425 4.41478L18.6819 3.35412ZM18.6819 1.81812C19.106 2.24227 19.106 2.92996 18.6819 3.35412L19.7425 4.41478C20.7525 3.40483 20.7525 1.7674 19.7425 0.757456L18.6819 1.81812ZM17.1459 1.81812C17.57 1.39396 18.2577 1.39396 18.6819 1.81812L19.7425 0.757456C18.7326 -0.252485 17.0952 -0.252485 16.0852 0.757456L17.1459 1.81812Z" fill="currentColor" stroke="none"/>
    <path d="M6 12C6 12 6.90546 10.7783 7.5 10.5C9.29484 9.65986 9.65986 9.29484 10.5 7.5C10.7783 6.90546 12 6 12 6M8.5 14.5C8.5 14.5 9.72171 13.5945 10 13C10.8401 11.2052 11.2052 10.8401 13 10C13.5945 9.72171 14.5 8.5 14.5 8.5" />
    <path d="M15.25 8.57458L14.7197 9.10491V9.10491L15.25 8.57458ZM11.9254 5.25L12.4557 4.71967L11.9254 5.25ZM15.25 1.92542L15.7803 1.39509V1.39509L15.25 1.92542ZM18.5746 5.25L18.0443 5.78033L18.0443 5.78033L18.5746 5.25ZM13.5877 0.75V0H13.5877L13.5877 0.75ZM10.75 3.58771L11.5 3.58771V3.58771H10.75ZM16.9123 9.75V10.5H16.9123L16.9123 9.75ZM19.75 6.91229H20.5V6.91229L19.75 6.91229ZM15.7803 8.04425L12.4557 4.71967L11.3951 5.78033L14.7197 9.10491L15.7803 8.04425ZM14.7197 2.45575L18.0443 5.78033L19.1049 4.71967L15.7803 1.39509L14.7197 2.45575ZM12.4557 2.45575C12.8625 2.04895 13.1154 1.79833 13.3228 1.64012C13.5128 1.49512 13.5742 1.5 13.5877 1.5L13.5877 0C13.1144 0 12.7364 0.200784 12.4129 0.447588C12.1067 0.681187 11.7719 1.01827 11.3951 1.39509L12.4557 2.45575ZM15.7803 1.39509C15.4035 1.01827 15.0687 0.681187 14.7625 0.447588C14.439 0.200784 14.0611 0 13.5877 0V1.5C13.6012 1.5 13.6626 1.49512 13.8526 1.64012C14.06 1.79833 14.3129 2.04895 14.7197 2.45575L15.7803 1.39509ZM12.4557 4.71967C12.0489 4.31287 11.7983 4.06 11.6401 3.85264C11.4951 3.66259 11.5 3.60123 11.5 3.58771L10 3.58771C10 4.06106 10.2008 4.43904 10.4476 4.76251C10.6812 5.06868 11.0183 5.40352 11.3951 5.78033L12.4557 4.71967ZM11.3951 1.39509C11.0183 1.7719 10.6812 2.10673 10.4476 2.4129C10.2008 2.73638 10 3.11435 10 3.58771L11.5 3.58771C11.5 3.57419 11.4951 3.51282 11.6401 3.32277C11.7983 3.11542 12.0489 2.86254 12.4557 2.45575L11.3951 1.39509ZM18.0443 8.04425C17.6375 8.45105 17.3846 8.70167 17.1772 8.85988C16.9872 9.00488 16.9258 9 16.9123 9L16.9123 10.5C17.3856 10.5 17.7636 10.2992 18.0871 10.0524C18.3933 9.81881 18.7281 9.48173 19.1049 9.10491L18.0443 8.04425ZM14.7197 9.10491C15.0965 9.48173 15.4313 9.81881 15.7375 10.0524C16.061 10.2992 16.4389 10.5 16.9123 10.5L16.9123 9C16.8988 9 16.8374 9.00488 16.6474 8.85988C16.44 8.70167 16.1871 8.45105 15.7803 8.04425L14.7197 9.10491ZM19.1049 9.10491C19.4817 8.7281 19.8188 8.39327 20.0524 8.0871C20.2992 7.76362 20.5 7.38565 20.5 6.91229L19 6.91229C19 6.92581 19.0049 6.98718 18.8599 7.17722C18.7017 7.38458 18.4511 7.63745 18.0443 8.04425L19.1049 9.10491ZM18.0443 5.78033C18.4511 6.18713 18.7017 6.44 18.8599 6.64736C19.0049 6.83741 19 6.89877 19 6.91229L20.5 6.91229C20.5 6.43894 20.2992 6.06096 20.0524 5.73749C19.8188 5.43132 19.4817 5.09648 19.1049 4.71967L18.0443 5.78033Z" fill="currentColor" stroke="none"/>
    <path d="M8.57458 15.25L9.10491 14.7197V14.7197L8.57458 15.25ZM5.25 11.9254L4.71967 12.4557L5.25 11.9254ZM1.92542 15.25L1.39509 15.7803V15.7803L1.92542 15.25ZM5.25 18.5746L5.78033 18.0443L5.78033 18.0443L5.25 18.5746ZM0.75 13.5877L0 13.5877V13.5877H0.75ZM3.58771 10.75V11.5H3.58771L3.58771 10.75ZM9.75 16.9123L10.5 16.9123V16.9123H9.75ZM6.91229 19.75L6.91229 20.5H6.91229V19.75ZM9.10491 14.7197L5.78033 11.3951L4.71967 12.4557L8.04425 15.7803L9.10491 14.7197ZM1.39509 15.7803L4.71967 19.1049L5.78033 18.0443L2.45575 14.7197L1.39509 15.7803ZM1.39509 11.3951C1.01827 11.7719 0.681187 12.1067 0.447588 12.4129C0.200784 12.7364 0 13.1144 0 13.5877L1.5 13.5877C1.5 13.5742 1.49512 13.5128 1.64012 13.3228C1.79833 13.1154 2.04895 12.8625 2.45575 12.4557L1.39509 11.3951ZM2.45575 14.7197C2.04895 14.3129 1.79833 14.06 1.64012 13.8526C1.49512 13.6626 1.5 13.6012 1.5 13.5877H0C0 14.0611 0.200784 14.439 0.447588 14.7625C0.681187 15.0687 1.01827 15.4035 1.39509 15.7803L2.45575 14.7197ZM5.78033 11.3951C5.40352 11.0183 5.06868 10.6812 4.76251 10.4476C4.43904 10.2008 4.06106 10 3.58771 10L3.58771 11.5C3.60123 11.5 3.66259 11.4951 3.85264 11.6401C4.06 11.7983 4.31287 12.0489 4.71967 12.4557L5.78033 11.3951ZM2.45575 12.4557C2.86254 12.0489 3.11542 11.7983 3.32277 11.6401C3.51282 11.4951 3.57419 11.5 3.58771 11.5L3.58771 10C3.11435 10 2.73638 10.2008 2.4129 10.4476C2.10673 10.6812 1.7719 11.0183 1.39509 11.3951L2.45575 12.4557ZM9.10491 19.1049C9.48173 18.7281 9.81881 18.3933 10.0524 18.0871C10.2992 17.7636 10.5 17.3856 10.5 16.9123L9 16.9123C9 16.9258 9.00488 16.9872 8.85988 17.1772C8.70167 17.3846 8.45105 17.6375 8.04425 18.0443L9.10491 19.1049ZM8.04425 15.7803C8.45105 16.1871 8.70167 16.44 8.85988 16.6474C9.00488 16.8374 9 16.8988 9 16.9123L10.5 16.9123C10.5 16.4389 10.2992 16.061 10.0524 15.7375C9.81881 15.4313 9.48173 15.0965 9.10491 14.7197L8.04425 15.7803ZM8.04425 18.0443C7.63745 18.4511 7.38458 18.7017 7.17722 18.8599C6.98718 19.0049 6.92581 19 6.91229 19L6.91229 20.5C7.38565 20.5 7.76362 20.2992 8.0871 20.0524C8.39327 19.8188 8.7281 19.4817 9.10491 19.1049L8.04425 18.0443ZM4.71967 19.1049C5.09648 19.4817 5.43132 19.8188 5.73749 20.0524C6.06096 20.2992 6.43894 20.5 6.91229 20.5L6.91229 19C6.89877 19 6.83741 19.0049 6.64736 18.8599C6.44 18.7017 6.18713 18.4511 5.78033 18.0443L4.71967 19.1049Z" fill="currentColor" stroke="none"/>
  </symbol>

  <!-- 4. Весы -->
  <symbol id="icon-scale" viewBox="0 0 22 16" fill="none" stroke="currentColor" stroke-width="1.5" stroke-linecap="round" stroke-linejoin="round">
    <path d="M3.75 5.72873C3.75 6.84504 5.54086 7.75 7.75 7.75V5.72873C7.75 4.73454 7.75 4.23745 7.35252 3.93419C6.95504 3.63092 6.561 3.74435 5.77292 3.97121C4.56469 4.31902 3.75 4.9758 3.75 5.72873Z" />
    <path d="M14.75 4.25C14.75 6.183 11.616 7.75 7.75 7.75C3.88401 7.75 0.75 6.183 0.75 4.25C0.75 2.317 3.88401 0.75 7.75 0.75C11.616 0.75 14.75 2.317 14.75 4.25Z" />
    <path d="M0.75 4.75V11.4167C0.75 13.2576 3.88401 14.75 7.75 14.75H18.75C19.6928 14.75 20.1642 14.75 20.4571 14.4571C20.75 14.1642 20.75 13.6928 20.75 12.75V9.75C20.75 8.80719 20.75 8.33579 20.4571 8.04289C20.1642 7.75 19.6928 7.75 18.75 7.75H7.75" />
    <path d="M16.75 14.75V12.75M12.75 14.75V12.75M8.75 14.75V12.75M4.75 14.25V12.25" />
  </symbol>

  <!-- 5. Пульс / Сердце -->
  <symbol id="icon-pulse" viewBox="0 0 20 22" fill="none" stroke="currentColor" stroke-width="1.5" stroke-linecap="round" stroke-linejoin="round">
    <path d="M5.63598 8.75C6.32173 10.1468 7.05442 11.4549 6.8852 13.0642C6.61468 15.6369 3.49512 16.6052 1.50022 17.7904C0.193247 18.5669 0.681904 20.75 2.28582 20.75C4.23047 20.75 5.96607 20.5948 7.7206 19.7701L11.1611 17.6528C11.6387 17.4283 12.2413 17.524 12.75 17.75" />
    <path d="M13.7605 8.75C13.0602 10.1468 12.312 11.4549 12.4848 13.0642C12.7611 15.6369 15.9467 16.6052 17.9839 17.7904C19.3185 18.5669 18.8195 20.75 17.1816 20.75C15.1958 20.75 13.4234 20.5948 11.6317 19.7701L8.11831 17.6528C7.70819 17.464 7.20777 17.5017 6.75 17.6528" />
    <path d="M7.75 2.75C7.75 3.85457 8.64543 4.75 9.75 4.75C10.8546 4.75 11.75 3.85457 11.75 2.75C11.75 1.64543 10.8546 0.75 9.75 0.75C8.64543 0.75 7.75 1.64543 7.75 2.75Z" />
    <path d="M0.75 14.75C3.19586 14.75 4.29368 12.0449 4.64335 10.1791C4.73463 9.69206 4.88246 9.20649 5.20625 8.83138C6.30651 7.55674 7.93404 6.75 9.75 6.75C11.566 6.75 13.1935 7.55674 14.2937 8.83138C14.6175 9.20649 14.7654 9.69206 14.8567 10.1791C15.2063 12.0449 16.3041 14.75 18.75 14.75" />
  </symbol>

</svg> 