<?xml version="1.0" encoding="utf-8"?>
<svg width="56.667" height="56.667" viewBox="0 0 56.667 56.667" fill="none" xmlns="http://www.w3.org/2000/svg">
  <path d="M28.3333 56.6667C43.9814 56.6667 56.6667 43.9814 56.6667 28.3333C56.6667 12.6853 43.9814 1.90735e-06 28.3333 1.90735e-06C12.6853 1.90735e-06 1.90735e-06 12.6853 1.90735e-06 28.3333C1.90735e-06 43.9814 12.6853 56.6667 28.3333 56.6667L28.3333 56.6667ZM28.0879 40.0802L43.6713 21.6635L39.3454 18.0032L25.889 33.9062L18.1406 25.0509L13.876 28.7824L23.7927 40.1158C24.3361 40.7368 25.1233 41.0901 25.9485 41.0832C26.7737 41.0764 27.5549 40.7101 28.0879 40.0802L28.0879 40.0802Z" fill="#BCEC30" fill-rule="evenodd" transform="translate(0 0)" />
</svg>