<svg width="29" height="20" viewBox="0 0 29 20" fill="none" xmlns="http://www.w3.org/2000/svg">
  <path d="M3.69 19.46C1.54 20.7 0 19.66 0 17.83V2.17C0 0.34 1.54 -0.7 3.69 0.54C7.03 2.47 17.06 8.27 17.06 8.27C18.39 9.04 18.39 10.96 17.06 11.73C17.06 11.73 7.03 17.53 3.69 19.46Z" fill="#00C1FF"/>
  <path d="M14.73 19.46C12.58 20.7 11.04 19.66 11.04 17.83V2.17C11.04 0.34 12.58 -0.7 14.73 0.54C18.07 2.47 28.1 8.27 28.1 8.27C29.43 9.04 29.43 10.96 28.1 11.73C28.1 11.73 18.07 17.53 14.73 19.46Z" fill="#BCEC30"/>
</svg>