<svg width="195" height="41" viewBox="0 0 195 41" fill="none" xmlns="http://www.w3.org/2000/svg">
  <path d="M6.28 11.29C6.28 14.06 7.71 15.72 9.56 17.03L11.94 18.74C13.2 19.64 14.12 20.67 14.12 22.24C14.12 23.64 13.2 24.48 11.74 24.48C10.31 24.48 9.36 23.44 9.36 21.76L9.36 20.28L6 20.28L6 21.96C6 25.57 8.58 27.56 11.74 27.56C14.9 27.56 17.48 25.66 17.48 21.82C17.48 19.13 16 17.48 14.18 16.16L11.71 14.4C10.54 13.56 9.64 12.69 9.64 11.29C9.64 9.86 10.48 9.08 11.71 9.08C13.03 9.08 13.84 9.89 13.84 11.68L13.84 13L17.2 13L17.2 11.6C17.2 7.82 14.76 6 11.71 6C8.72 6 6.28 7.51 6.28 11.29ZM24.35 6.28L20.99 6.28L20.99 27.28L24.35 27.28L24.35 19.92L30.37 27.28L34.57 27.28L28.05 19.64L34.21 13.28L29.78 13.28L24.35 19.38L24.35 6.28ZM56.33 27.28L56.33 18.6L61.76 18.6L61.76 15.52L56.33 15.52L56.33 9.36L62.6 9.36L62.6 6.28L52.97 6.28L52.97 27.28L56.33 27.28ZM67.35 10.48C68.58 10.48 69.45 9.56 69.45 8.38C69.45 7.18 68.58 6.28 67.35 6.28C66.15 6.28 65.25 7.18 65.25 8.38C65.25 9.56 66.15 10.48 67.35 10.48ZM152.03 27.28L152.03 19.44L154.8 19.44C158.25 19.44 160.71 17.31 160.71 13.42L160.71 12.02C160.71 8.27 158.25 6.28 154.8 6.28L148.67 6.28L148.67 27.28L152.03 27.28ZM77.7 22.49L77.7 16.22L81.34 16.22L81.34 13.28L77.7 13.28L77.7 9.08L74.34 9.08L74.34 13.28L72.1 13.28L72.1 16.22L74.34 16.22L74.34 22.72C74.34 26.47 76.36 27.56 79.13 27.56C79.94 27.56 80.84 27.39 81.34 27.22L81.34 24.23C80.87 24.4 80.28 24.48 79.8 24.48C78.35 24.48 77.7 23.86 77.7 22.49ZM154.52 9.36C156.26 9.36 157.35 10.17 157.35 12.3L157.35 13.14C157.35 15.44 156.26 16.36 154.52 16.36L152.03 16.36L152.03 9.36L154.52 9.36ZM94.21 19.58L94.21 27.28L97.57 27.28L97.57 18.91C97.57 14.96 95.33 13 92.37 13C90.63 13 89.2 13.81 88.33 15.3L88.33 13.28L84.97 13.28L84.97 27.28L88.33 27.28L88.33 19.58C88.33 17.23 89.45 15.94 91.27 15.94C93.09 15.94 94.21 17.23 94.21 19.58ZM114.76 21.4C114.79 21.04 114.82 20.67 114.82 20.28C114.82 16 111.88 13 107.88 13C103.87 13 100.93 16 100.93 20.28C100.93 24.56 103.87 27.56 107.88 27.56C111.18 27.56 113.62 25.99 114.46 23.08L110.82 23.08C110.37 24.06 109.5 24.62 108.02 24.62C105.94 24.62 104.6 23.44 104.24 21.4H114.76ZM129.36 23.25C129.36 17.48 121.13 19.78 121.13 17.09C121.13 16.19 121.97 15.66 123.23 15.66C124.6 15.66 125.61 16.56 125.61 17.73L129.11 17.73C129.11 15.07 126.59 13 123.23 13C120.12 13 117.74 14.62 117.74 17.23C117.74 22.94 125.89 20.42 125.89 23.39C125.89 24.42 125.05 24.93 123.65 24.93C122.14 24.93 120.99 24.17 120.99 22.66L117.49 22.66C117.49 25.77 120.15 27.56 123.65 27.56C126.93 27.56 129.36 25.91 129.36 23.25ZM144.03 23.25C144.03 17.48 135.8 19.78 135.8 17.09C135.8 16.19 136.64 15.66 137.9 15.66C139.27 15.66 140.28 16.56 140.28 17.73L143.78 17.73C143.78 15.07 141.26 13 137.9 13C134.79 13 132.41 14.62 132.41 17.23C132.41 22.94 140.56 20.42 140.56 23.39C140.56 24.42 139.72 24.93 138.32 24.93C136.81 24.93 135.66 24.17 135.66 22.66L132.16 22.66C132.16 25.77 134.82 27.56 138.32 27.56C141.6 27.56 144.03 25.91 144.03 23.25ZM167.44 13.28L164.08 13.28L164.08 27.28L167.44 27.28L167.44 20.14C167.44 17.79 168.9 16.5 171.39 16.5C171.95 16.5 172.45 16.58 172.84 16.72L172.84 13.06C172.67 13 172.39 13 172.14 13C170.1 13 168.45 13.9 167.44 15.55L167.44 13.28ZM181.82 27.56C185.91 27.56 188.96 24.56 188.96 20.28C188.96 16 185.91 13 181.82 13C177.73 13 174.68 16 174.68 20.28C174.68 24.56 177.73 27.56 181.82 27.56ZM44.02 28.74L49.31 13.28L45.95 13.28L42.42 24.06L38.92 13.28L35.56 13.28L40.83 28.71C40.01 30.67 39.03 31.59 37.46 31.59C36.79 31.59 36.15 31.45 35.62 31.28L35.62 34.25C36.15 34.42 36.96 34.56 37.77 34.56C41.33 34.56 42.84 32.18 44.02 28.74ZM69.03 27.28L69.03 13.28L65.67 13.28L65.67 27.28L69.03 27.28ZM107.88 15.94C109.84 15.94 111.12 17.06 111.49 19.02L104.26 19.02C104.63 17.06 105.92 15.94 107.88 15.94ZM181.82 24.48C179.66 24.48 178.04 22.8 178.04 20.28C178.04 17.76 179.66 16.08 181.82 16.08C183.97 16.08 185.6 17.76 185.6 20.28C185.6 22.8 183.97 24.48 181.82 24.48Z" fill="#000000"/>
</svg>